<?xml version="1.0"?>


<svg xmlns="http://www.w3.org/2000/svg" xml:space="preserve" width="9.44482in" height="4.5762in" version="1.1" style="shape-rendering:geometricPrecision; text-rendering:geometricPrecision; image-rendering:optimizeQuality; fill-rule:evenodd; clip-rule:evenodd" viewBox="0 0 9455 4581" xmlns:xlink="http://www.w3.org/1999/xlink">
 <defs>
  
 </defs>
 <g id="__x0023_Layer_x0020_1">
  <metadata id="CorelCorpID_0Corel-Layer"></metadata>
  <g id="_1847939714400">
   <g>
    <g>
     <g>
      <path class="fil0" fill="#FFFFFF" d="M5224 3809l-246 0 0 746 -345 0 0 -1947 633 0c423,0 695,219 695,595 0,403 -292,606 -737,606zm8 -909l0 0 -254 0 0 622 246 0c249,0 399,-92 399,-311 0,-204 -142,-311 -391,-311z"></path>
     </g>
    </g>
    <g>
     <g>
      <path class="fil0" fill="#FFFFFF" d="M6863 4581c-230,0 -468,-61 -668,-146l50 -311c184,96 434,173 634,173 222,0 380,-100 380,-265 0,-161 -104,-223 -384,-318 -407,-142 -615,-269 -615,-573 0,-333 277,-560 653,-560 223,0 419,50 565,115l-50 319c-177,-92 -350,-146 -526,-146 -192,0 -323,104 -323,230 0,150 108,204 411,307 407,143 587,281 587,584 0,361 -287,591 -714,591z"></path>
     </g>
    </g>
    <g>
     <g>
      <path class="fil0" fill="#FFFFFF" d="M9098 4577l-564 -775 -211 0 0 753 -346 0 0 -1947 603 0c445,0 734,215 734,599 0,288 -162,468 -407,553l548 737 -357 80zm-522 -1670l0 0 -253 0 0 626 253 0c250,0 392,-115 392,-322 0,-196 -138,-304 -392,-304z"></path>
     </g>
    </g>
   </g>
   <g>
    <g>
     <path class="fil1" fill="#FFFFFF" d="M1850 3012c0,32 -26,58 -57,58 -32,0 -58,-26 -58,-58 0,-32 26,-57 58,-57 31,0 57,25 57,57z"></path>
     <path class="fil1" fill="#FFFFFF" d="M1782 3012c0,-6 5,-11 11,-11 6,0 11,5 11,11 0,6 -5,11 -11,11 -6,0 -11,-5 -11,-11zm11 -126l0 0c-70,0 -126,57 -126,126 0,70 56,126 126,126 69,0 126,-56 126,-126 0,-69 -57,-126 -126,-126z"></path>
    </g>
    <g>
     <path class="fil1" fill="#FFFFFF" d="M1016 4455c0,32 -25,58 -57,58 -32,0 -58,-26 -58,-58 0,-31 26,-57 58,-57 32,0 57,26 57,57z"></path>
     <path class="fil1" fill="#FFFFFF" d="M948 4455c0,-6 5,-10 11,-10 6,0 11,5 11,10 0,6 -5,11 -11,11 -6,0 -11,-5 -11,-11zm11 -126l0 0c-70,0 -126,57 -126,126 0,70 56,126 126,126 69,0 126,-56 126,-126 0,-69 -57,-126 -126,-126z"></path>
    </g>
    <g>
     <path class="fil1" fill="#FFFFFF" d="M2683 4455c0,32 -25,58 -57,58 -32,0 -58,-26 -58,-58 0,-31 26,-57 58,-57 32,0 57,26 57,57z"></path>
     <path class="fil1" fill="#FFFFFF" d="M2615 4455c0,-6 5,-10 11,-10 6,0 11,4 11,10 0,6 -5,11 -11,11 -6,0 -11,-5 -11,-11zm11 -126l0 0c-70,0 -126,57 -126,126 0,70 56,126 126,126 69,0 126,-56 126,-126 0,-69 -57,-126 -126,-126z"></path>
    </g>
    <g>
     <path class="fil1" fill="#FFFFFF" d="M2647 4443l-832 -1443 -22 -38 -22 38 -834 1443 -22 38 44 0 1667 0 43 0 -22 -38zm-1666 25l0 0 834 -1443 -44 0 833 1443 22 -38 -1667 0 22 38z"></path>
    </g>
    <g>
     <path class="fil1" fill="#FFFFFF" d="M1016 4455c0,32 -25,58 -57,58 -32,0 -58,-26 -58,-58 0,-31 26,-57 58,-57 32,0 57,26 57,57z"></path>
     <path class="fil1" fill="#FFFFFF" d="M948 4455c0,-6 5,-10 11,-10 6,0 11,5 11,10 0,6 -5,11 -11,11 -6,0 -11,-5 -11,-11zm11 -126l0 0c-70,0 -126,57 -126,126 0,70 56,126 126,126 69,0 126,-56 126,-126 0,-69 -57,-126 -126,-126z"></path>
    </g>
   </g>
   <g>
    <g>
     <path class="fil1" fill="#FFFFFF" d="M2684 1569c0,32 -26,58 -57,58 -32,0 -58,-26 -58,-58 0,-32 26,-57 58,-57 31,0 57,25 57,57z"></path>
     <path class="fil1" fill="#FFFFFF" d="M2616 1569c0,-6 5,-11 11,-11 6,0 11,5 11,11 0,6 -5,11 -11,11 -6,0 -11,-5 -11,-11zm11 -126l0 0c-70,0 -126,57 -126,126 0,70 56,126 126,126 69,0 126,-56 126,-126 0,-69 -57,-126 -126,-126z"></path>
    </g>
    <g>
     <path class="fil1" fill="#FFFFFF" d="M1850 3012c0,32 -25,58 -57,58 -32,0 -58,-26 -58,-58 0,-32 26,-57 58,-57 32,0 57,25 57,57z"></path>
     <path class="fil1" fill="#FFFFFF" d="M1782 3012c0,-6 5,-11 11,-11 6,0 11,5 11,11 0,6 -5,11 -11,11 -6,0 -11,-5 -11,-11zm11 -126l0 0c-70,0 -126,57 -126,126 0,70 56,126 126,126 69,0 126,-56 126,-126 0,-69 -57,-126 -126,-126z"></path>
    </g>
    <g>
     <path class="fil1" fill="#FFFFFF" d="M3517 3012c0,32 -25,58 -57,58 -32,0 -58,-26 -58,-58 0,-32 26,-57 58,-57 32,0 57,25 57,57z"></path>
     <path class="fil1" fill="#FFFFFF" d="M3449 3012c0,-6 5,-11 11,-11 6,0 11,5 11,11 0,6 -5,11 -11,11 -6,0 -11,-5 -11,-11zm11 -126l0 0c-70,0 -126,57 -126,126 0,70 56,126 126,126 69,0 126,-56 126,-126 0,-69 -57,-126 -126,-126z"></path>
    </g>
    <g>
     <path class="fil1" fill="#FFFFFF" d="M3482 3000l-833 -1443 -22 -38 -22 38 -834 1443 -22 38 44 0 1667 0 43 0 -21 -38zm-1667 25l0 0 834 -1443 -44 0 833 1443 22 -38 -1667 0 22 38z"></path>
    </g>
    <g>
     <path class="fil1" fill="#FFFFFF" d="M1850 3012c0,32 -25,58 -57,58 -32,0 -58,-26 -58,-58 0,-32 26,-57 58,-57 32,0 57,25 57,57z"></path>
     <path class="fil1" fill="#FFFFFF" d="M1782 3012c0,-6 5,-11 11,-11 6,0 11,5 11,11 0,6 -5,11 -11,11 -6,0 -11,-5 -11,-11zm11 -126l0 0c-70,0 -126,57 -126,126 0,70 56,126 126,126 69,0 126,-56 126,-126 0,-69 -57,-126 -126,-126z"></path>
    </g>
   </g>
   <g>
    <g>
     <path class="fil1" fill="#FFFFFF" d="M2568 4455c0,-31 26,-57 58,-57 32,0 57,26 57,57 0,32 -25,58 -57,58 -32,0 -58,-26 -58,-58z"></path>
     <path class="fil1" fill="#FFFFFF" d="M2637 4455c0,6 -5,11 -11,11 -6,0 -11,-5 -11,-11 0,-5 5,-10 11,-10 6,0 11,4 11,10zm-11 126l0 0c69,0 126,-56 126,-126 0,-69 -57,-126 -126,-126 -70,0 -126,57 -126,126 0,70 56,126 126,126z"></path>
    </g>
    <g>
     <path class="fil1" fill="#FFFFFF" d="M3402 3012c0,-32 26,-57 58,-57 32,0 57,25 57,57 0,32 -25,58 -57,58 -32,0 -58,-26 -58,-58z"></path>
     <path class="fil1" fill="#FFFFFF" d="M3471 3012c0,6 -5,11 -11,11 -6,0 -11,-5 -11,-11 0,-6 5,-11 11,-11 6,0 11,5 11,11zm-11 126l0 0c69,0 126,-56 126,-126 0,-69 -57,-126 -126,-126 -70,0 -126,57 -126,126 0,70 56,126 126,126z"></path>
    </g>
    <g>
     <path class="fil1" fill="#FFFFFF" d="M1735 3012c0,-32 26,-57 58,-57 32,0 57,25 57,57 0,32 -25,58 -57,58 -32,0 -58,-26 -58,-58z"></path>
     <path class="fil1" fill="#FFFFFF" d="M1804 3012c0,6 -5,11 -11,11 -6,0 -11,-5 -11,-11 0,-6 5,-11 11,-11 6,0 11,5 11,11zm-11 126l0 0c69,0 126,-56 126,-126 0,-69 -57,-126 -126,-126 -70,0 -126,57 -126,126 0,70 56,126 126,126z"></path>
    </g>
    <g>
     <path class="fil1" fill="#FFFFFF" d="M1771 3025l833 1443 22 38 21 -38 835 -1443 21 -38 -43 0 -1667 0 -44 0 22 38zm1667 -25l0 0 -834 1443 43 0 -832 -1443 -22 38 1667 0 -22 -38z"></path>
    </g>
    <g>
     <path class="fil1" fill="#FFFFFF" d="M3402 3012c0,-32 26,-57 58,-57 32,0 57,25 57,57 0,32 -25,58 -57,58 -32,0 -58,-26 -58,-58z"></path>
     <path class="fil1" fill="#FFFFFF" d="M3471 3012c0,6 -5,11 -11,11 -6,0 -11,-5 -11,-11 0,-6 5,-11 11,-11 6,0 11,5 11,11zm-11 126l0 0c69,0 126,-56 126,-126 0,-69 -57,-126 -126,-126 -70,0 -126,57 -126,126 0,70 56,126 126,126z"></path>
    </g>
   </g>
   <g>
    <g>
     <path class="fil1" fill="#FFFFFF" d="M3518 126c0,32 -25,58 -57,58 -32,0 -58,-26 -58,-58 0,-32 26,-58 58,-58 32,0 57,26 57,58z"></path>
     <path class="fil1" fill="#FFFFFF" d="M3450 126c0,-6 5,-11 11,-11 6,0 11,5 11,11 0,6 -5,11 -11,11 -6,0 -11,-5 -11,-11zm11 -126l0 0c-70,0 -126,57 -126,126 0,70 56,126 126,126 69,0 126,-56 126,-126 0,-69 -57,-126 -126,-126z"></path>
    </g>
    <g>
     <path class="fil1" fill="#FFFFFF" d="M2684 1569c0,32 -25,58 -57,58 -32,0 -58,-26 -58,-58 0,-32 26,-57 58,-57 32,0 57,25 57,57z"></path>
     <path class="fil1" fill="#FFFFFF" d="M2616 1569c0,-6 5,-11 11,-11 6,0 11,5 11,11 0,6 -5,11 -11,11 -6,0 -11,-5 -11,-11zm11 -126l0 0c-70,0 -126,57 -126,126 0,70 56,126 126,126 69,0 126,-56 126,-126 0,-69 -57,-126 -126,-126z"></path>
    </g>
    <g>
     <path class="fil1" fill="#FFFFFF" d="M4351 1569c0,32 -25,58 -57,58 -32,0 -58,-26 -58,-58 0,-32 26,-57 58,-57 32,0 57,25 57,57z"></path>
     <path class="fil1" fill="#FFFFFF" d="M4283 1569c0,-6 5,-11 11,-11 6,0 11,5 11,11 0,6 -5,11 -11,11 -6,0 -11,-5 -11,-11zm11 -126l0 0c-70,0 -126,57 -126,126 0,70 56,126 126,126 69,0 126,-56 126,-126 0,-69 -57,-126 -126,-126z"></path>
    </g>
    <g>
     <path class="fil1" fill="#FFFFFF" d="M4316 1557l-833 -1443 -22 -38 -22 38 -834 1443 -22 37 44 0 1667 0 43 0 -21 -37zm-1667 25l0 0 834 -1443 -44 0 833 1443 22 -38 -1667 0 22 38z"></path>
    </g>
    <g>
     <path class="fil1" fill="#FFFFFF" d="M2684 1569c0,32 -25,58 -57,58 -32,0 -58,-26 -58,-58 0,-32 26,-57 58,-57 32,0 57,25 57,57z"></path>
     <path class="fil1" fill="#FFFFFF" d="M2616 1569c0,-6 5,-11 11,-11 6,0 11,5 11,11 0,6 -5,11 -11,11 -6,0 -11,-5 -11,-11zm11 -126l0 0c-70,0 -126,57 -126,126 0,70 56,126 126,126 69,0 126,-56 126,-126 0,-69 -57,-126 -126,-126z"></path>
    </g>
   </g>
   <g>
    <g>
     <path class="fil1" fill="#FFFFFF" d="M1017 1569c0,32 -25,58 -57,58 -32,0 -58,-26 -58,-58 0,-32 26,-57 58,-57 32,0 57,25 57,57z"></path>
     <path class="fil1" fill="#FFFFFF" d="M949 1569c0,-6 5,-11 11,-11 6,0 11,5 11,11 0,6 -5,11 -11,11 -6,0 -11,-5 -11,-11zm11 -126l0 0c-69,0 -126,57 -126,126 0,70 57,126 126,126 69,0 126,-56 126,-126 0,-69 -57,-126 -126,-126z"></path>
    </g>
    <g>
     <path class="fil1" fill="#FFFFFF" d="M183 3012c0,32 -25,58 -57,58 -32,0 -58,-26 -58,-58 0,-32 26,-57 58,-57 32,0 57,25 57,57z"></path>
     <path class="fil1" fill="#FFFFFF" d="M115 3012c0,-6 5,-11 11,-11 6,0 11,5 11,11 0,6 -5,11 -11,11 -6,0 -11,-5 -11,-11zm11 -126l0 0c-69,0 -126,57 -126,126 0,70 57,126 126,126 69,0 126,-56 126,-126 0,-69 -57,-126 -126,-126z"></path>
    </g>
    <g>
     <path class="fil1" fill="#FFFFFF" d="M1850 3012c0,32 -25,58 -57,58 -32,0 -58,-26 -58,-58 0,-32 26,-57 58,-57 32,0 57,25 57,57z"></path>
     <path class="fil1" fill="#FFFFFF" d="M1782 3012c0,-6 5,-11 11,-11 6,0 11,5 11,11 0,6 -5,11 -11,11 -6,0 -11,-5 -11,-11zm11 -126l0 0c-70,0 -126,57 -126,126 0,70 56,126 126,126 69,0 126,-56 126,-126 0,-69 -57,-126 -126,-126z"></path>
    </g>
    <g>
     <path class="fil1" fill="#FFFFFF" d="M1815 3000l-833 -1443 -22 -38 -22 38 -834 1443 -22 38 44 0 1667 0 43 0 -21 -38zm-1667 25l0 0 834 -1443 -44 0 833 1443 22 -38 -1667 0 22 38z"></path>
    </g>
    <g>
     <path class="fil1" fill="#FFFFFF" d="M183 3012c0,32 -25,58 -57,58 -32,0 -58,-26 -58,-58 0,-32 26,-57 58,-57 32,0 57,25 57,57z"></path>
     <path class="fil1" fill="#FFFFFF" d="M115 3012c0,-6 5,-11 11,-11 6,0 11,5 11,11 0,6 -5,11 -11,11 -6,0 -11,-5 -11,-11zm11 -126l0 0c-69,0 -126,57 -126,126 0,70 57,126 126,126 69,0 126,-56 126,-126 0,-69 -57,-126 -126,-126z"></path>
    </g>
   </g>
  </g>
 </g>
</svg>